<svg width="178" height="156" xmlns="http://www.w3.org/2000/svg"><path d="M22.9 36.8c2.5 0 4.9-.7 6.6-2l-1-5.6c-1.3.9-2.4 1.3-3.7 1.3-1.8 0-2.7-1-2.7-2.9v-9.8h6.3V12h-6.3V5.9l-7.9 1V12h-3.1v5.8h3.1v10.9c0 5.2 3.1 8.1 8.7 8.1m8.6-24.3v3.1c2.7 0 5-.8 6.7-2.4 1.7-1.6 2.6-3.7 2.6-6.2 0-3.5-2.2-6.1-5.2-6.1-2.5 0-4.3 1.7-4.3 4.1 0 2.3 1.5 3.8 3.6 3.8.3 0 .9-.1 1.1-.3.1.2.2.4.2.6 0 2-1.8 3.3-4.7 3.4m8.6 7c0 2.5.9 4.2 2.6 5.3 1.2.8 2.5 1.3 5.8 1.9 2 .4 3.3.8 3.8 1.1.5.4.8.9.8 1.5 0 1.5-1.2 2.3-3.3 2.3-2.1 0-3.7-1.2-4-3l-6.6 1.5c1 4.2 5 6.6 10.6 6.6 6.7 0 10.9-3.1 10.9-8.1 0-2.5-.9-4.3-2.6-5.5-1.2-.8-2.5-1.3-6-2-3.9-.7-4.6-1.3-4.6-2.5 0-1.4 1.1-2.3 2.9-2.3 2 0 3.3 1.1 3.5 2.8l6.6-.8c-.7-4.6-4.3-7.1-10.1-7.1-6.1.1-10.3 3.3-10.3 8.3m34 16.7h8V24.7h12.6v-6.5H82.1v-7.4h14.3V4.1H74.1zm25.1-24.3v24.3h7.9V25c0-3.8 2.1-6 5.3-6 1.2 0 2.3.2 3 .5l.4-8c-.6-.1-1.1-.1-1.6-.1-3.7 0-6.3 2.3-7.2 6.1l-.9-5.5h-6.9v-.1zm29.5 5c2.1 0 3.5 1.5 3.5 3.7 0 .6 0 .9-.1 1.1h-7.7c.3-3 1.9-4.8 4.3-4.8m-12 7.4c0 7.7 4.6 12.5 12 12.5 5.2 0 9.2-2.5 10.6-6.8l-6.4-2.2c-.6 2.1-1.9 3.1-4 3.1-2.7 0-4.5-2.1-4.6-5.5h14.8c.2-.8.4-2.2.4-3.2 0-6.6-4-10.9-10.6-10.9-7.5 0-12.2 5-12.2 13m37-7.4c2.1 0 3.5 1.5 3.5 3.7 0 .6 0 .9-.1 1.1h-7.7c.2-3 1.8-4.8 4.3-4.8m0 19.9c5.2 0 9.2-2.5 10.6-6.8l-6.4-2.2c-.6 2.1-1.9 3.1-4 3.1-2.7 0-4.5-2.1-4.6-5.5h14.8c.2-.8.4-2.2.4-3.2 0-6.6-4-10.9-10.6-10.9-7.6 0-12.2 5-12.2 13-.1 7.7 4.5 12.5 12 12.5m17.9-9.1c2.596 0 4.7 2.015 4.7 4.5s-2.104 4.5-4.7 4.5-4.7-2.015-4.7-4.5 2.104-4.5 4.7-4.5m-5-23.6l2.1 21.8h5.7l2.2-21.8zM81.1 54.7h13.1v-5.8H81.1zM8.2 81.2H14c2.9 0 4.4 1.3 4.4 3.9 0 2.7-1.4 4.1-4.4 4.1H8.1v-8h.1zM17.4 99l.9 4.3c.3 1.6.7 2.5 1.5 3.5h8.7c-1-1.1-1.6-2.2-2-3.8l-1.3-5.5c-.8-3.1-2.5-4.6-5.3-5.1v-.1c4-.5 6.9-3.7 6.9-8 0-6.2-4.2-9.5-11.9-9.5H.3v32.1h7.9V95.6H13c2.7-.1 3.9.8 4.4 3.4zM45 92.3h-7.7c.2-3 1.9-4.8 4.3-4.8 2.1 0 3.5 1.5 3.5 3.7-.1.6-.1.8-.1 1.1m7.4.5c0-6.6-4-10.9-10.6-10.9-7.6 0-12.2 5-12.2 13 0 7.7 4.6 12.5 12 12.5 5.2 0 9.2-2.5 10.6-6.8l-6.4-2.2c-.6 2.1-1.9 3.1-4 3.1-2.7 0-4.5-2.1-4.6-5.5H52c.2-.8.4-2.2.4-3.2m10 14.6h6.9c2.1 0 3.1.6 3.1 1.9 0 1.9-2.5 2.9-7.1 2.9-3.7 0-5.7-1-5.7-2.7 0-1.4 1-2.1 2.8-2.1m3.4-21c2.1 0 3.2 1.3 3.2 3.6s-1.2 3.6-3.2 3.6-3.3-1.3-3.3-3.6 1.2-3.6 3.3-3.6m-11 3.7c0 3.1 1.6 5.4 4.6 6.8-2.7.6-4.4 2.5-4.4 4.8s1.3 3.9 3.5 4.5c-3.3.4-5.2 2.2-5.2 4.6 0 3.8 4.5 6.1 11.8 6.1 4.4 0 7.8-.8 10.4-2.4 2.6-1.6 3.9-3.8 3.9-6.7 0-4.8-3.4-7.3-10-7.3H63c-1.1 0-1.7-.4-1.7-1.2 0-.6.4-1.2 1.2-1.5 1 .2 2.2.3 3.5.3 6.8 0 11.1-3 11.1-8 0-1.5-.5-2.9-1.3-4.1 2.4-.6 4.1-2.3 4.5-4.5L74 79.4c-.2 1.8-.7 3.2-1.3 3.9-1.9-1-4.2-1.4-6.6-1.4-7.2 0-11.3 3-11.3 8.2m26.9 16.6h7.9V82.4h-7.9zm4-35.4c-2.6 0-4.6 1.7-4.6 4.3 0 2.5 2 4.2 4.6 4.2 2.6 0 4.6-1.7 4.6-4.2s-2-4.3-4.6-4.3m17.3 30.9c-2.1 0-3.7-1.2-4-3l-6.6 1.5c1 4.2 5 6.6 10.6 6.6 6.7 0 10.9-3.1 10.9-8.1 0-2.5-.9-4.3-2.6-5.5-1.2-.8-2.5-1.3-6-2-3.9-.7-4.6-1.3-4.6-2.5 0-1.4 1.1-2.3 2.9-2.3 2 0 3.3 1.1 3.5 2.8l6.6-.8c-.7-4.6-4.3-7.1-10.1-7.1-6.2 0-10.3 3.2-10.3 8.2 0 2.5.9 4.2 2.6 5.3 1.2.8 2.5 1.3 5.8 1.9 2 .4 3.3.8 3.8 1.1.5.4.8.9.8 1.5 0 1.6-1.2 2.4-3.3 2.4m23.7 5.2c2.5 0 4.9-.7 6.6-2l-1-5.6c-1.3.9-2.4 1.3-3.7 1.3-1.8 0-2.7-1-2.7-2.9v-9.8h6.3v-5.8h-6.3v-6.1l-7.9 1v5.1h-3.2v5.8h3.1v10.7c.1 5.4 3.2 8.3 8.8 8.3m23.4-15.1h-7.7c.2-3 1.9-4.8 4.3-4.8 2.1 0 3.5 1.5 3.5 3.7 0 .6-.1.8-.1 1.1m7.4.5c0-6.6-4-10.9-10.6-10.9-7.6 0-12.2 5-12.2 13 0 7.7 4.6 12.5 12 12.5 5.2 0 9.2-2.5 10.6-6.8l-6.4-2.2c-.6 2.1-1.9 3.1-4 3.1-2.7 0-4.5-2.1-4.6-5.5h14.8c.2-.8.4-2.2.4-3.2m11.2 2.8c0-3.8 2.1-6 5.3-6 1.2 0 2.3.2 3 .5l.4-8c-.6-.1-1.1-.1-1.6-.1-3.7 0-6.3 2.3-7.2 6.1l-.9-5.5h-6.9v24.3h7.9V95.6zM59.6 135.2H47.4v-12.4h-8.1v32.1h8.1v-12.8h12.2v12.8h8.1v-32.1h-8.1zm23.7.4c2.1 0 3.5 1.5 3.5 3.7 0 .6 0 .9-.1 1.1H79c.2-3.1 1.8-4.8 4.3-4.8m10.6 13.1l-6.4-2.2c-.6 2.1-1.9 3.1-4 3.1-2.7 0-4.5-2.1-4.6-5.5h14.8c.2-.8.4-2.2.4-3.2 0-6.6-4-10.9-10.6-10.9-7.6 0-12.2 5-12.2 13 0 7.7 4.6 12.5 12 12.5 5.2 0 9.2-2.5 10.6-6.8m11.2-12.6l-.9-5.5h-6.9v24.3h7.9v-11.2c0-3.8 2.1-6 5.3-6 1.2 0 2.3.2 3 .5l.4-8c-.6-.1-1.1-.1-1.6-.1-3.6-.1-6.3 2.2-7.2 6m21.8-.5c2.1 0 3.5 1.5 3.5 3.7 0 .6 0 .9-.1 1.1h-7.7c.2-3.1 1.9-4.8 4.3-4.8m0 19.9c5.2 0 9.2-2.5 10.6-6.8l-6.4-2.2c-.6 2.1-1.9 3.1-4 3.1-2.7 0-4.5-2.1-4.6-5.5h14.8c.2-.8.4-2.2.4-3.2 0-6.6-4-10.9-10.6-10.9-7.6 0-12.2 5-12.2 13 0 7.7 4.6 12.5 12 12.5M.1 36.2h8.1V4.1H.1z" fill="#FFF" fill-rule="evenodd"/></svg>