<svg width="35" height="39" xmlns="http://www.w3.org/2000/svg"><g fill="#FFF" fill-rule="evenodd"><path d="M33.328 18.953c-.32 0-.64-.122-.884-.366L16.875 3.017 2.135 17.76a1.25 1.25 0 0 1-1.769-1.768L15.991.366a1.25 1.25 0 0 1 1.768 0L34.212 16.82a1.25 1.25 0 0 1-.884 2.134"/><path d="M33.328 28.988c-.32 0-.64-.122-.884-.366l-15.569-15.57-14.74 14.743a1.25 1.25 0 0 1-1.769-1.768l15.625-15.626c.47-.469 1.3-.469 1.768 0l16.453 16.453a1.25 1.25 0 0 1-.884 2.134"/><path d="M33.328 39.023c-.32 0-.64-.122-.884-.366l-15.569-15.57L2.135 37.83a1.25 1.25 0 0 1-1.769-1.768l15.625-15.626c.47-.469 1.3-.469 1.768 0L34.212 36.89a1.25 1.25 0 0 1-.884 2.134"/></g></svg>