<svg width="35" height="36" xmlns="http://www.w3.org/2000/svg"><path d="M26.601 5.732a2.173 2.173 0 1 0 0 4.347 2.173 2.173 0 0 0 0-4.347zm-9.756 5.571c-1.509 0-2.944.59-4.058 1.672a6.318 6.318 0 0 0-1.904 4.508 6.184 6.184 0 0 0 6.177 6.177c3.388 0 6.101-2.727 6.177-6.21.038-1.757-.467-3.246-1.46-4.308-1.07-1.141-2.717-1.776-4.763-1.835a4.805 4.805 0 0 0-.169-.004zM17.06 26.8c-5.137 0-9.316-4.178-9.316-9.316a9.47 9.47 0 0 1 2.856-6.758c1.77-1.72 4.081-2.627 6.506-2.556 2.9.085 5.308 1.063 6.961 2.826 1.566 1.674 2.365 3.929 2.308 6.522a9.547 9.547 0 0 1-2.758 6.549A9.17 9.17 0 0 1 17.06 26.8zM10.016 2.57c-4.106 0-7.448 3.34-7.448 7.448V25.05c0 4.107 3.342 7.447 7.448 7.447h14.087c4.107 0 7.448-3.34 7.448-7.448V10.018c0-4.107-3.34-7.448-7.448-7.448H10.016zm14.087 32.495H10.016C4.493 35.065 0 30.573 0 25.05V10.017C0 4.494 4.493 0 10.016 0h14.087C29.626 0 34.12 4.494 34.12 10.016V25.05c0 5.523-4.494 10.016-10.017 10.016z" fill="#FFF" fill-rule="evenodd"/></svg>