<?xml version="1.0" encoding="UTF-8"?>
<svg width="178px" height="156px" viewBox="0 0 178 156" version="1.1" xmlns="http://www.w3.org/2000/svg" xmlns:xlink="http://www.w3.org/1999/xlink">
    <!-- Generator: Sketch 51.3 (57544) - http://www.bohemiancoding.com/sketch -->
    <title>free-text</title>
    <desc>Created with Sketch.</desc>
    <defs></defs>
    <g id="Page-1" stroke="none" stroke-width="1" fill="none" fill-rule="evenodd">
        <g id="Tablet" transform="translate(-296.000000, -607.000000)" fill="#FFFFFF">
            <g id="free-text" transform="translate(296.000000, 607.000000)">
                <path d="M22.8998,36.8002 C25.3998,36.8002 27.7998,36.1002 29.4998,34.8002 L28.4998,29.2002 C27.1998,30.1002 26.0998,30.5002 24.7998,30.5002 C22.9998,30.5002 22.0998,29.5002 22.0998,27.6002 L22.0998,17.8002 L28.3998,17.8002 L28.3998,12.0002 L22.0998,12.0002 L22.0998,5.9002 L14.1998,6.9002 L14.1998,12.0002 L11.0998,12.0002 L11.0998,17.8002 L14.1998,17.8002 L14.1998,28.7002 C14.1998,33.9002 17.2998,36.8002 22.8998,36.8002" id="Fill-2"></path>
                <path d="M31.4999,12.4999 L31.4999,15.5999 C34.1999,15.5999 36.4999,14.7999 38.1999,13.1999 C39.8999,11.5999 40.7999,9.4999 40.7999,6.9999 C40.7999,3.4999 38.5999,0.8999 35.5999,0.8999 C33.0999,0.8999 31.2999,2.5999 31.2999,4.9999 C31.2999,7.2999 32.7999,8.7999 34.8999,8.7999 C35.1999,8.7999 35.7999,8.6999 35.9999,8.4999 C36.0999,8.6999 36.1999,8.8999 36.1999,9.0999 C36.1999,11.0999 34.3999,12.3999 31.4999,12.4999" id="Fill-4"></path>
                <path d="M40.1,19.4999 C40.1,21.9999 41,23.6999 42.7,24.7999 C43.9,25.5999 45.2,26.0999 48.5,26.6999 C50.5,27.0999 51.8,27.4999 52.3,27.7999 C52.8,28.1999 53.1,28.6999 53.1,29.2999 C53.1,30.7999 51.9,31.5999 49.8,31.5999 C47.7,31.5999 46.1,30.3999 45.8,28.5999 L39.2,30.0999 C40.2,34.2999 44.2,36.6999 49.8,36.6999 C56.5,36.6999 60.7,33.5999 60.7,28.5999 C60.7,26.0999 59.8,24.2999 58.1,23.0999 C56.9,22.2999 55.6,21.7999 52.1,21.0999 C48.2,20.3999 47.5,19.7999 47.5,18.5999 C47.5,17.1999 48.6,16.2999 50.4,16.2999 C52.4,16.2999 53.7,17.3999 53.9,19.0999 L60.5,18.2999 C59.8,13.6999 56.2,11.1999 50.4,11.1999 C44.3,11.2999 40.1,14.4999 40.1,19.4999" id="Fill-6"></path>
                <polygon id="Fill-8" points="74.1 36.2001 82.1 36.2001 82.1 24.7001 94.7 24.7001 94.7 18.2001 82.1 18.2001 82.1 10.8001 96.4 10.8001 96.4 4.1001 74.1 4.1001"></polygon>
                <path d="M99.1996,11.8998 L99.1996,36.1998 L107.0996,36.1998 L107.0996,24.9998 C107.0996,21.1998 109.1996,18.9998 112.3996,18.9998 C113.5996,18.9998 114.6996,19.1998 115.3996,19.4998 L115.8006,11.4998 C115.1996,11.3998 114.6996,11.3998 114.1996,11.3998 C110.5006,11.3998 107.8996,13.6998 107.0006,17.4998 L106.0996,11.9998 L99.1996,11.9998 L99.1996,11.8998 Z" id="Fill-10"></path>
                <path d="M128.6996,16.8998 C130.8006,16.8998 132.1996,18.3998 132.1996,20.5998 C132.1996,21.1998 132.1996,21.4998 132.0996,21.6998 L124.3996,21.6998 C124.6996,18.6998 126.3006,16.8998 128.6996,16.8998 M116.6996,24.2998 C116.6996,31.9998 121.3006,36.7998 128.6996,36.7998 C133.8996,36.7998 137.8996,34.2998 139.3006,29.9998 L132.8996,27.7998 C132.3006,29.8998 131.0006,30.8998 128.8996,30.8998 C126.1996,30.8998 124.3996,28.7998 124.3006,25.3998 L139.0996,25.3998 C139.3006,24.5998 139.5006,23.1998 139.5006,22.1998 C139.5006,15.5998 135.5006,11.2998 128.8996,11.2998 C121.3996,11.2998 116.6996,16.2998 116.6996,24.2998" id="Fill-12"></path>
                <path d="M153.6996,16.8998 C155.8006,16.8998 157.1996,18.3998 157.1996,20.5998 C157.1996,21.1998 157.1996,21.4998 157.0996,21.6998 L149.3996,21.6998 C149.5996,18.6998 151.1996,16.8998 153.6996,16.8998 M153.6996,36.7998 C158.8996,36.7998 162.8996,34.2998 164.3006,29.9998 L157.8996,27.7998 C157.3006,29.8998 156.0006,30.8998 153.8996,30.8998 C151.1996,30.8998 149.3996,28.7998 149.3006,25.3998 L164.0996,25.3998 C164.3006,24.5998 164.5006,23.1998 164.5006,22.1998 C164.5006,15.5998 160.5006,11.2998 153.8996,11.2998 C146.3006,11.2998 141.6996,16.2998 141.6996,24.2998 C141.5996,31.9998 146.1996,36.7998 153.6996,36.7998" id="Fill-14"></path>
                <path d="M171.6,27.7001 C174.196,27.7001 176.3,29.7151 176.3,32.2001 C176.3,34.6851 174.196,36.7001 171.6,36.7001 C169.004,36.7001 166.9,34.6851 166.9,32.2001 C166.9,29.7151 169.004,27.7001 171.6,27.7001" id="Fill-16"></path>
                <polygon id="Fill-18" points="166.6 4.1 168.7 25.9 174.4 25.9 176.6 4.1"></polygon>
                <polygon id="Fill-20" points="81.1 54.7 94.2 54.7 94.2 48.9 81.1 48.9"></polygon>
                <path d="M8.2001,81.1996 L14.0001,81.1996 C16.9001,81.1996 18.4001,82.5006 18.4001,85.0996 C18.4001,87.8006 17.0001,89.1996 14.0001,89.1996 L8.1001,89.1996 L8.1001,81.1996 L8.2001,81.1996 Z M17.4001,99.0006 L18.3001,103.3006 C18.6001,104.8996 19.0001,105.8006 19.8001,106.8006 L28.5001,106.8006 C27.5001,105.6996 26.9001,104.5996 26.5001,103.0006 L25.2001,97.5006 C24.4001,94.3996 22.7001,92.8996 19.9001,92.3996 L19.9001,92.3006 C23.9001,91.8006 26.8001,88.5996 26.8001,84.3006 C26.8001,78.0996 22.6001,74.8006 14.9001,74.8006 L0.3001,74.8006 L0.3001,106.8996 L8.2001,106.8996 L8.2001,95.5996 L13.0001,95.5996 C15.7001,95.5006 16.9001,96.3996 17.4001,99.0006 Z" id="Fill-22"></path>
                <path d="M44.9999,92.3002 L37.2999,92.3002 C37.4999,89.3002 39.1999,87.5002 41.5999,87.5002 C43.6999,87.5002 45.0999,89.0002 45.0999,91.1992 C44.9999,91.8002 44.9999,92.0002 44.9999,92.3002 M52.3999,92.8002 C52.3999,86.1992 48.3999,81.9002 41.7999,81.9002 C34.1999,81.9002 29.5999,86.9002 29.5999,94.9002 C29.5999,102.6002 34.1999,107.4002 41.5999,107.4002 C46.7999,107.4002 50.7999,104.9002 52.1999,100.6002 L45.7999,98.4002 C45.1999,100.5002 43.8999,101.5002 41.7999,101.5002 C39.0999,101.5002 37.2999,99.4002 37.1999,96.0002 L51.9999,96.0002 C52.1999,95.1992 52.3999,93.8002 52.3999,92.8002" id="Fill-23"></path>
                <path d="M62.3998,107.3998 L69.2998,107.3998 C71.3998,107.3998 72.3998,108.0008 72.3998,109.2998 C72.3998,111.1998 69.8998,112.1998 65.2998,112.1998 C61.5998,112.1998 59.5998,111.1998 59.5998,109.5008 C59.5998,108.0998 60.5998,107.3998 62.3998,107.3998 M65.7998,86.3998 C67.8998,86.3998 68.9998,87.6998 68.9998,90.0008 C68.9998,92.2998 67.7998,93.5998 65.7998,93.5998 C63.7998,93.5998 62.4998,92.2998 62.4998,90.0008 C62.4998,87.6998 63.6998,86.3998 65.7998,86.3998 M54.7998,90.0998 C54.7998,93.1998 56.3998,95.5008 59.3998,96.8998 C56.6998,97.5008 54.9998,99.3998 54.9998,101.6998 C54.9998,104.0008 56.2998,105.5998 58.4998,106.1998 C55.1998,106.5998 53.2998,108.3998 53.2998,110.7998 C53.2998,114.5998 57.7998,116.8998 65.0998,116.8998 C69.4998,116.8998 72.8998,116.0998 75.4998,114.5008 C78.0998,112.8998 79.3998,110.6998 79.3998,107.7998 C79.3998,103.0008 75.9998,100.5008 69.3998,100.5008 L62.9998,100.5008 C61.8998,100.5008 61.2998,100.0998 61.2998,99.2998 C61.2998,98.6998 61.6998,98.0998 62.4998,97.7998 C63.4998,98.0008 64.6998,98.0998 65.9998,98.0998 C72.7998,98.0998 77.0998,95.0998 77.0998,90.0998 C77.0998,88.5998 76.5998,87.1998 75.7998,86.0008 C78.1998,85.3998 79.8998,83.6998 80.2998,81.5008 L73.9998,79.3998 C73.7998,81.1998 73.2998,82.5998 72.6998,83.2998 C70.7998,82.2998 68.4998,81.8998 66.0998,81.8998 C58.8998,81.8998 54.7998,84.8998 54.7998,90.0998" id="Fill-24"></path>
                <polygon id="Fill-25" points="81.7 106.7 89.6 106.7 89.6 82.4 81.7 82.4"></polygon>
                <path d="M85.7001,71.3002 C83.1001,71.3002 81.1001,73.0002 81.1001,75.6002 C81.1001,78.1002 83.1001,79.8002 85.7001,79.8002 C88.3001,79.8002 90.3001,78.1002 90.3001,75.6002 C90.3001,73.1002 88.3001,71.3002 85.7001,71.3002" id="Fill-26"></path>
                <path d="M103.0004,102.1996 C100.8994,102.1996 99.3004,101.0006 99.0004,99.1996 L92.3994,100.6996 C93.3994,104.8996 97.3994,107.3006 103.0004,107.3006 C109.6994,107.3006 113.8994,104.1996 113.8994,99.1996 C113.8994,96.6996 113.0004,94.8996 111.3004,93.6996 C110.1004,92.8996 108.8004,92.3996 105.3004,91.6996 C101.3994,91.0006 100.6994,90.3996 100.6994,89.1996 C100.6994,87.8006 101.8004,86.8996 103.6004,86.8996 C105.6004,86.8996 106.8994,88.0006 107.1004,89.6996 L113.6994,88.8996 C113.0004,84.3006 109.3994,81.8006 103.6004,81.8006 C97.3994,81.8006 93.3004,85.0006 93.3004,90.0006 C93.3004,92.5006 94.1994,94.1996 95.8994,95.3006 C97.1004,96.0996 98.3994,96.5996 101.6994,97.1996 C103.6994,97.5996 105.0004,98.0006 105.5004,98.3006 C106.0004,98.6996 106.3004,99.1996 106.3004,99.8006 C106.3004,101.3996 105.1004,102.1996 103.0004,102.1996" id="Fill-27"></path>
                <path d="M126.6996,107.3998 C129.1996,107.3998 131.5996,106.6998 133.3006,105.3998 L132.3006,99.7998 C131.0006,100.6998 129.8996,101.0998 128.5996,101.0998 C126.8006,101.0998 125.8996,100.0998 125.8996,98.1998 L125.8996,88.3998 L132.1996,88.3998 L132.1996,82.5998 L125.8996,82.5998 L125.8996,76.5008 L118.0006,77.5008 L118.0006,82.5998 L114.8006,82.5998 L114.8006,88.3998 L117.8996,88.3998 L117.8996,99.0998 C118.0006,104.5008 121.0996,107.3998 126.6996,107.3998" id="Fill-28"></path>
                <path d="M150.1,92.3002 L142.4,92.3002 C142.6,89.3002 144.3,87.5002 146.7,87.5002 C148.8,87.5002 150.2,89.0002 150.2,91.1992 C150.2,91.8002 150.1,92.0002 150.1,92.3002 M157.5,92.8002 C157.5,86.1992 153.5,81.9002 146.9,81.9002 C139.3,81.9002 134.7,86.9002 134.7,94.9002 C134.7,102.6002 139.3,107.4002 146.7,107.4002 C151.9,107.4002 155.9,104.9002 157.3,100.6002 L150.9,98.4002 C150.3,100.5002 149,101.5002 146.9,101.5002 C144.2,101.5002 142.4,99.4002 142.3,96.0002 L157.1,96.0002 C157.3,95.1992 157.5,93.8002 157.5,92.8002" id="Fill-29"></path>
                <path d="M168.6996,95.6 C168.6996,91.8 170.8006,89.6 174.0006,89.6 C175.1996,89.6 176.3006,89.8 177.0006,90.1 L177.3996,82.1 C176.8006,82 176.3006,82 175.8006,82 C172.0996,82 169.5006,84.3 168.5996,88.1 L167.6996,82.6 L160.8006,82.6 L160.8006,106.9 L168.6996,106.9 L168.6996,95.6 Z" id="Fill-30"></path>
                <polygon id="Fill-31" points="59.6 135.1996 47.4 135.1996 47.4 122.8006 39.3 122.8006 39.3 154.8996 47.4 154.8996 47.4 142.0996 59.6 142.0996 59.6 154.8996 67.7 154.8996 67.7 122.8006 59.6 122.8006"></polygon>
                <path d="M83.3002,135.6 C85.4002,135.6 86.8002,137.1 86.8002,139.3 C86.8002,139.9 86.8002,140.2 86.7002,140.4 L79.0002,140.4 C79.2002,137.3 80.8002,135.6 83.3002,135.6 M93.9002,148.7 L87.5002,146.5 C86.9002,148.6 85.6002,149.6 83.5002,149.6 C80.8002,149.6 79.0002,147.5 78.9002,144.1 L93.6992,144.1 C93.9002,143.3 94.1002,141.9 94.1002,140.9 C94.1002,134.3 90.1002,130 83.5002,130 C75.9002,130 71.3002,135 71.3002,143 C71.3002,150.7 75.9002,155.5 83.3002,155.5 C88.5002,155.5 92.5002,153 93.9002,148.7" id="Fill-32"></path>
                <path d="M105.1,136.1 L104.2,130.6 L97.3,130.6 L97.3,154.9 L105.2,154.9 L105.2,143.7 C105.2,139.9 107.3,137.7 110.5,137.7 C111.7,137.7 112.8,137.9 113.5,138.2 L113.9,130.2 C113.3,130.1 112.8,130.1 112.3,130.1 C108.7,130 106,132.3 105.1,136.1" id="Fill-33"></path>
                <path d="M126.8998,135.6 C129.0008,135.6 130.3998,137.1 130.3998,139.3 C130.3998,139.9 130.3998,140.2 130.2998,140.4 L122.5998,140.4 C122.7998,137.3 124.5008,135.6 126.8998,135.6 M126.8998,155.5 C132.0998,155.5 136.0998,153 137.5008,148.7 L131.0998,146.5 C130.5008,148.6 129.1998,149.6 127.0998,149.6 C124.3998,149.6 122.5998,147.5 122.5008,144.1 L137.2998,144.1 C137.5008,143.3 137.6998,141.9 137.6998,140.9 C137.6998,134.3 133.6998,130 127.0998,130 C119.5008,130 114.8998,135 114.8998,143 C114.8998,150.7 119.5008,155.5 126.8998,155.5" id="Fill-34"></path>
                <polygon id="Fill-1" points="0.1 36.2 8.2 36.2 8.2 4.1 0.1 4.1"></polygon>
            </g>
        </g>
    </g>
</svg>