<?xml version="1.0" encoding="UTF-8"?>
<svg width="293px" height="293px" viewBox="0 0 293 293" version="1.1" xmlns="http://www.w3.org/2000/svg" xmlns:xlink="http://www.w3.org/1999/xlink">
    <!-- Generator: Sketch 51.3 (57544) - http://www.bohemiancoding.com/sketch -->
    <title>free-circle</title>
    <desc>Created with Sketch.</desc>
    <defs></defs>
    <g id="Page-1" stroke="none" stroke-width="1" fill="none" fill-rule="evenodd">
        <g id="Tablet" transform="translate(-237.000000, -536.000000)" fill="#FFFFFF">
            <g id="free-circle" transform="translate(237.000000, 535.000000)">
                <g id="Group-90" transform="translate(0.000000, 0.400000)">
                    <path d="M261.0004,68.4998 C261.8004,67.8998 262.0004,66.8998 261.3994,65.9998 C260.8004,65.1998 259.8004,64.9998 258.8994,65.5998 C258.1004,66.1998 257.8994,67.1998 258.5004,67.9998 C259.1994,68.8998 260.1994,69.0998 261.0004,68.4998" id="Fill-35"></path>
                    <polygon id="Fill-36" points="268.3998 81.7 270.5998 85.9 272.7998 84.8 270.5998 80.5 273.0008 79.2 275.5008 84 277.7998 82.8 273.8998 75.3 263.0998 81 264.5008 83.7"></polygon>
                    <path d="M279.0004,91.7 L279.8004,93.8 C280.1994,94.8 279.8994,95.5 279.0004,95.9 C278.0004,96.3 277.3994,96 276.8994,94.9 L276.1004,92.8 L279.0004,91.7 Z M270.0004,95.3 L274.0004,93.7 L274.6994,95.4 C275.1004,96.3 274.8994,96.9 274.1004,97.5 L272.6994,98.4 C272.1994,98.7 271.8994,99 271.6994,99.4 L272.8994,102.5 C273.1994,102 273.5004,101.6 274.0004,101.3 L275.8004,100.1 C276.8004,99.4 277.1004,98.6 276.8994,97.5 C277.6994,98.8 279.1994,99.4 280.6994,98.8 C282.8994,97.9 283.5004,96 282.3994,93.3 L280.3004,88.1 L269.0004,92.6 L270.0004,95.3 Z" id="Fill-37"></path>
                    <polygon id="Fill-38" points="276.5004 114.8001 278.8994 114.1001 277.3994 108.6001 279.6994 107.9001 281.1004 112.8001 283.3004 112.2001 282.0004 107.3001 284.1994 106.7001 285.6994 112.1001 288.1994 111.4001 285.8994 103.2001 274.1004 106.4001"></polygon>
                    <polygon id="Fill-39" points="279.0004 127.9002 281.5004 127.5002 280.5004 121.8002 282.8994 121.4002 283.8004 126.4002 286.1004 126.0002 285.1994 121.0002 287.5004 120.6002 288.5004 126.2002 291.0004 125.8002 289.5004 117.3002 277.5004 119.4002"></polygon>
                    <path d="M283.1996,140.4998 C283.1996,141.4998 284.0006,142.1998 285.0006,142.1998 C286.0006,142.1998 286.6996,141.3998 286.6996,140.3998 C286.6996,139.3998 285.8996,138.6998 284.8996,138.6998 C283.8996,138.7998 283.1996,139.4998 283.1996,140.4998" id="Fill-40"></path>
                    <polygon id="Fill-41" points="280.1 153.9002 279.8 156.9002 284.2 157.2992 283.8 162.0002 286.3 162.2002 286.7 157.5002 289.4 157.7002 289 163.1002 291.5 163.2992 292.2 154.9002"></polygon>
                    <path d="M284.3998,173.1004 L284.7998,170.9004 L287.7998,171.4994 L287.3998,173.7004 C287.1998,174.7994 286.5998,175.2994 285.5998,175.1004 C284.5998,174.7994 284.1998,174.2004 284.3998,173.1004 Z M278.2998,169.7004 L282.5008,170.4994 L282.1998,172.2994 C282.0008,173.2994 281.5998,173.7004 280.5998,173.7004 L278.8998,173.7004 C278.2998,173.7004 277.8998,173.7994 277.5008,173.9994 L276.8998,177.2004 C277.3998,176.9004 277.7998,176.7994 278.5008,176.7004 L280.6998,176.6004 C281.8998,176.4994 282.5998,175.9994 283.0008,174.9994 C282.8998,176.4994 283.8998,177.7994 285.5008,178.1004 C287.7998,178.4994 289.2998,177.2004 289.8998,174.2994 L290.8998,168.7994 L278.8998,166.6004 L278.2998,169.7004 Z" id="Fill-42"></path>
                    <polygon id="Fill-43" points="273.3002 189.4998 275.8002 190.2998 277.4002 184.7998 279.6992 185.4998 278.3002 190.2998 280.5002 190.9998 281.9002 186.1998 284.1992 186.7998 282.6002 192.2998 285.0002 192.9998 287.5002 184.6998 275.8002 181.1998"></polygon>
                    <polygon id="Fill-44" points="268.3998 201.9998 270.7998 202.9998 273.0008 197.6998 275.1998 198.6008 273.2998 203.2998 275.3998 204.1008 277.2998 199.4998 279.5008 200.3998 277.3998 205.6008 279.6998 206.6008 283.0008 198.6008 271.6998 193.9998"></polygon>
                    <path d="M267.6996,214.2996 C266.8006,213.7996 265.8006,214.1006 265.3006,214.9996 C264.8006,215.9006 265.0996,216.9006 266.0006,217.4006 C266.8996,217.9006 267.8996,217.6006 268.3996,216.7996 C268.8006,215.7996 268.5006,214.7996 267.6996,214.2996" id="Fill-45"></path>
                    <polygon id="Fill-46" points="253.6 226.9002 257.1 229.6002 254.2 233.4002 256.2 234.9002 259.1 231.1002 261.3 232.7992 258 237.1002 260.1 238.6002 265.2 231.9002 255.5 224.5002"></polygon>
                    <path d="M250.3002,241.4002 L252.5002,243.5002 L251.0002,245.1002 C250.1992,245.9002 249.5002,246.0002 248.8002,245.2992 C248.0002,244.6002 248.0002,243.7992 248.8002,243.0002 L250.3002,241.4002 Z M245.5002,236.9002 L248.6002,239.7992 L247.4002,241.1002 C246.6992,241.7992 246.1002,241.9002 245.3002,241.4002 L243.9002,240.5002 C243.4002,240.2002 243.0002,240.0002 242.5002,240.0002 L240.3002,242.4002 C240.9002,242.4002 241.3002,242.5002 241.9002,242.7992 L243.8002,243.9002 C244.9002,244.5002 245.6992,244.4002 246.6002,243.7992 C245.6992,245.1002 245.8002,246.7002 247.0002,247.7992 C248.6992,249.4002 250.6992,249.1002 252.6992,247.0002 L256.5002,243.0002 L247.6002,234.7002 L245.5002,236.9002 Z" id="Fill-47"></path>
                    <polygon id="Fill-48" points="230.6 250.9002 232.3 252.9002 236.6 249.1002 238.2 251.0002 234.4 254.2992 235.9 256.0002 239.7 252.7002 241.2 254.5002 237 258.2002 238.6 260.1002 245.1 254.5002 237.2 245.2992"></polygon>
                    <polygon id="Fill-49" points="219.8002 258.7996 221.3002 260.9006 226.0002 257.6006 227.4002 259.6006 223.3002 262.4996 224.6002 264.4006 228.6992 261.4996 230.0002 263.4006 225.4002 266.6996 226.9002 268.7996 233.9002 263.7996 226.9002 253.7996"></polygon>
                    <path d="M210.1996,268.1004 C209.3006,268.6004 209.0006,269.6004 209.5006,270.4994 C210.0006,271.4004 211.0006,271.7004 211.8996,271.2004 C212.8006,270.7004 213.0996,269.7004 212.5996,268.7994 C212.0996,267.9004 211.0996,267.6004 210.1996,268.1004" id="Fill-50"></path>
                    <polygon id="Fill-51" points="194.0004 271.9998 195.5004 276.1008 191.0004 277.7998 191.8994 280.1008 196.3994 278.3998 197.3994 280.9998 192.3004 282.8998 193.1994 285.2998 201.1004 282.3998 196.8004 270.8998"></polygon>
                    <path d="M182.1,285.9998 C181,286.2998 180.3,285.8998 180.1,284.9998 C179.8,283.9998 180.2,283.3998 181.3,283.1008 L183.5,282.4998 L184.3,285.3998 L182.1,285.9998 Z M181.8,275.9998 L182.9,280.1998 L181.2,280.6998 C180.2,280.9998 179.7,280.6998 179.2,279.7998 L178.5,278.2998 C178.2,277.7998 178,277.3998 177.6,277.1998 L174.4,277.9998 C174.9,278.2998 175.2,278.6998 175.5,279.1998 L176.5,281.1008 C177.1,282.1998 177.8,282.6008 179,282.4998 C177.6,283.1008 176.8,284.4998 177.2,286.1008 C177.8,288.3998 179.6,289.1998 182.5,288.4998 L187.9,287.1008 L184.8,275.2998 L181.8,275.9998 Z" id="Fill-52"></path>
                    <polygon id="Fill-53" points="161.6996 279.9998 162.0006 282.4998 167.6996 281.6998 168.0006 284.1008 163.0996 284.7998 163.3996 287.1008 168.3996 286.2998 168.6996 288.6998 163.0996 289.4998 163.5006 291.9998 172.0006 290.6998 170.1996 278.6998"></polygon>
                    <polygon id="Fill-54" points="148.3002 280.7996 148.4002 283.4006 154.1002 283.1006 154.3002 285.6006 149.1992 285.7996 149.4002 288.1006 154.4002 287.7996 154.5002 290.1996 148.8002 290.4996 149.0002 292.9996 157.6002 292.6006 157.0002 280.4006"></polygon>
                    <path d="M135.2001,283.4998 C134.2001,283.3998 133.4001,284.1008 133.3001,285.1008 C133.2001,286.1008 133.9001,286.8998 134.9001,286.9998 C135.9001,287.1008 136.7001,286.3998 136.8001,285.3998 C136.9001,284.3998 136.2001,283.6008 135.2001,283.4998" id="Fill-55"></path>
                    <polygon id="Fill-56" points="118.4999 282.4002 113.8999 281.4002 113.3999 283.7992 117.9999 284.7992 117.4999 287.5002 112.1999 286.4002 111.6999 288.9002 119.8999 290.6002 122.3999 278.7002 119.3999 278.1002"></polygon>
                    <path d="M103.9999,284.2 L101.8999,283.5 C100.7999,283.2 100.4999,282.5 100.7999,281.6 C101.0999,280.6 101.7999,280.3 102.8999,280.6 L104.9999,281.3 L103.9999,284.2 Z M105.6999,279 L103.9999,278.4 C102.9999,278.1 102.6999,277.6 102.7999,276.6 L102.9999,275 C103.0999,274.4 102.9999,274 102.8999,273.6 L99.7999,272.6 C99.9999,273.1 100.0999,273.6 100.0999,274.2 L99.8999,276.3 C99.7999,277.5 100.2999,278.3 101.1999,278.8 C99.6999,278.5 98.2999,279.3 97.7999,280.9 C97.0999,283.1 98.1999,284.8 100.9999,285.7 L106.2999,287.4 L109.9999,275.8 L107.0999,274.9 L105.6999,279 Z" id="Fill-57"></path>
                    <polygon id="Fill-58" points="86.8002 269.7996 92.0002 272.1006 91.1002 274.4006 86.5002 272.4006 85.5002 274.4996 90.1002 276.4996 89.2002 278.6006 84.0002 276.2996 83.0002 278.6996 90.9002 282.1996 95.8002 270.9996 87.9002 267.4996"></polygon>
                    <polygon id="Fill-59" points="76.2001 261.1004 74.9001 263.2994 79.8001 266.2004 78.6001 268.2994 74.3001 265.7994 73.1001 267.7994 77.5001 270.2994 76.4001 272.2994 71.4001 269.4994 70.2001 271.7004 77.7001 275.9994 83.7001 265.4004"></polygon>
                    <path d="M63.7001,256.4002 C62.9001,255.7992 61.9001,255.9002 61.2001,256.7002 C60.6001,257.5002 60.7001,258.6002 61.5001,259.2002 C62.3001,259.7992 63.4001,259.6002 64.0001,258.7992 C64.6001,258.0002 64.5001,257.0002 63.7001,256.4002" id="Fill-60"></path>
                    <polygon id="Fill-61" points="50.2001 246.4002 46.8001 243.1002 45.1001 244.9002 48.5001 248.2002 46.5001 250.2002 42.7001 246.4002 40.9001 248.2002 46.9001 254.2002 55.5001 245.4002 53.3001 243.2992"></polygon>
                    <path d="M36.9999,240.2 L35.5999,238.5 C34.8999,237.6 34.8999,236.9 35.6999,236.3 C36.4999,235.6 37.1999,235.7 37.9999,236.6 L39.3999,238.3 L36.9999,240.2 Z M44.3999,233.9 L41.0999,236.7 L39.8999,235.3 C39.1999,234.5 39.1999,233.9 39.7999,233.1 L40.7999,231.8 C41.1999,231.3 41.3999,231 41.3999,230.5 L39.2999,228 C39.1999,228.5 38.9999,229 38.6999,229.5 L37.3999,231.2 C36.6999,232.2 36.6999,233 37.1999,234 C36.0999,233 34.4999,232.9 33.1999,233.9 C31.3999,235.4 31.3999,237.4 33.2999,239.7 L36.8999,244 L46.2999,236.2 L44.3999,233.9 Z" id="Fill-62"></path>
                    <polygon id="Fill-63" points="32.3002 217.4998 30.1002 218.8998 33.3002 223.6008 31.3002 224.9998 28.5002 220.7998 26.6002 222.1008 29.4002 226.1998 27.4002 227.4998 24.3002 222.7998 22.2002 224.2998 27.0002 231.3998 37.1002 224.6008"></polygon>
                    <polygon id="Fill-64" points="25.8002 205.7996 23.5002 206.9996 26.2002 211.9996 24.1002 213.1996 21.7002 208.6996 19.7002 209.7996 22.0002 214.2996 20.0002 215.4006 17.3002 210.4006 15.1002 211.6006 19.1002 219.1996 29.9002 213.4006"></polygon>
                    <path d="M16.8002,197.2996 C17.7002,196.9006 18.2002,195.9996 17.8002,194.9996 C17.4002,194.1006 16.5002,193.6006 15.5002,193.9996 C14.6002,194.4006 14.1002,195.2996 14.5002,196.2996 C14.9002,197.2996 15.8002,197.6996 16.8002,197.2996" id="Fill-65"></path>
                    <polygon id="Fill-66" points="15.9999 178.4998 11.6999 179.4998 10.5999 174.8998 8.1999 175.3998 9.2999 180.1008 6.5999 180.6998 5.3999 175.3998 2.8999 175.9998 4.7999 184.2998 16.6999 181.4998"></polygon>
                    <path d="M3.8998,167.1004 L3.5998,164.9004 C3.4998,163.7994 3.8998,163.2004 4.8998,162.9994 C5.8998,162.9004 6.4998,163.2994 6.5998,164.4004 L6.8998,166.6004 L3.8998,167.1004 Z M13.4998,165.7994 L9.1998,166.2994 L8.9998,164.4994 C8.8998,163.4994 9.1998,162.9994 10.0998,162.6004 L11.6998,162.1004 C12.2998,161.9004 12.5998,161.7004 12.8998,161.4004 L12.4998,158.1004 C12.0998,158.4994 11.6998,158.7994 11.1998,158.9994 L9.1998,159.7994 C8.0998,160.2004 7.5998,160.9004 7.4998,162.1004 C7.0998,160.7004 5.7998,159.7004 4.0998,159.9004 C1.7998,160.2004 0.6998,161.9004 1.0998,164.7994 L1.7998,170.2994 L13.8998,168.7004 L13.4998,165.7994 Z" id="Fill-67"></path>
                    <polygon id="Fill-68" points="12.1 145.4002 9.6 145.5002 9.7 151.2002 7.3 151.2992 7.2 146.2002 4.9 146.3002 5 151.2992 2.6 151.4002 2.5 145.7002 0 145.8002 0.2 154.4002 12.3 154.1002"></polygon>
                    <polygon id="Fill-69" points="12.8998 132.0999 10.3998 131.8999 9.9998 137.5999 7.4998 137.3999 7.8998 132.3999 5.5998 132.1999 5.1998 137.1999 2.8998 136.9999 3.2998 131.3999 0.7998 131.1999 0.0998 139.7999 12.2998 140.6999"></polygon>
                    <path d="M8.4999,118.0999 C8.2999,119.0999 8.8999,119.9999 9.8999,120.1999 C10.8999,120.3999 11.7999,119.7999 11.9999,118.7999 C12.1999,117.7999 11.5999,116.8999 10.5999,116.6999 C9.5999,116.4999 8.6999,117.0999 8.4999,118.0999" id="Fill-70"></path>
                    <polygon id="Fill-71" points="19.3002 103.8001 15.1002 102.3001 16.7002 97.8001 14.4002 97.0001 12.8002 101.5001 10.2002 100.6001 11.9002 95.5001 9.5002 94.7001 6.8002 102.7001 18.3002 106.7001"></polygon>
                    <path d="M18.8002,86.9998 L17.9002,88.9998 L15.2002,87.6998 L16.1002,85.6998 C16.6002,84.6998 17.3002,84.3998 18.1002,84.7998 C19.1002,85.1998 19.3002,85.8998 18.8002,86.9998 Z M24.0002,91.7998 L20.1002,89.9998 L20.9002,88.3998 C21.3002,87.4998 21.9002,87.1998 22.8002,87.3998 L24.4002,87.7998 C25.0002,87.8998 25.4002,87.9998 25.9002,87.7998 L27.3002,84.7998 C26.8002,84.9998 26.3002,84.9998 25.7002,84.8998 L23.6002,84.4998 C22.4002,84.2998 21.6002,84.5998 21.0002,85.4998 C21.5002,83.9998 20.9002,82.4998 19.3002,81.7998 C17.2002,80.7998 15.4002,81.6998 14.1002,84.3998 L11.8002,89.3998 L22.9002,94.4998 L24.0002,91.7998 Z" id="Fill-72"></path>
                    <polygon id="Fill-73" points="33.7001 73.8001 31.5001 72.5001 28.6001 77.4001 26.5001 76.1001 29.1001 71.8001 27.1001 70.6001 24.5001 74.9001 22.5001 73.7001 25.4001 68.9001 23.2001 67.5001 18.8001 74.9001 29.2001 81.2001"></polygon>
                    <polygon id="Fill-74" points="41.4999 62.9998 39.4999 61.3998 36.0999 65.9998 34.0999 64.4998 37.0999 60.4998 35.2999 59.0998 32.2999 63.0998 30.3999 61.6998 33.7999 57.1998 31.6999 55.6998 26.5999 62.5998 36.2999 69.8998"></polygon>
                    <path d="M47.8002,51.2 C48.5002,50.5 48.5002,49.4 47.8002,48.7 C47.1002,48 46.0002,48 45.3002,48.7 C44.6002,49.4 44.6002,50.5 45.3002,51.2 C46.1002,51.9 47.1002,51.9 47.8002,51.2" id="Fill-75"></path>
                    <polygon id="Fill-76" points="62.1 42.4998 59.4 38.9998 63.1 36.0998 61.6 34.0998 57.8 37.0998 56.1 34.8998 60.4 31.4998 58.8 29.4998 52.1 34.7998 59.6 44.3998"></polygon>
                    <path d="M67.2001,26.7 L69.1001,25.5 C70.0001,24.9 70.8001,25 71.3001,25.8 C71.9001,26.7 71.7001,27.4 70.7001,28 L68.8001,29.2 L67.2001,26.7 Z M72.5001,34.9 L70.1001,31.2 L71.6001,30.2 C72.5001,29.6 73.0001,29.7 73.7001,30.4 L74.9001,31.6 C75.3001,32 75.7001,32.3 76.1001,32.4 L78.9001,30.6 C78.4001,30.4 77.9001,30.2 77.5001,29.8 L76.0001,28.3 C75.1001,27.5 74.3001,27.3 73.2001,27.7 C74.4001,26.7 74.7001,25.1 73.8001,23.7 C72.5001,21.7 70.5001,21.5 68.0001,23.1 L63.3001,26.1 L69.9001,36.4 L72.5001,34.9 Z" id="Fill-77"></path>
                    <polygon id="Fill-78" points="90.3002 24.9002 89.2002 22.6002 84.1002 25.1002 83.0002 22.9002 87.5002 20.7002 86.4002 18.6002 81.9002 20.9002 80.9002 18.8002 85.9002 16.3002 84.8002 14.0002 77.1002 17.8002 82.6002 28.7002"></polygon>
                    <polygon id="Fill-79" points="102.7001 19.9002 101.8001 17.5002 96.5001 19.5002 95.6001 17.3002 100.3001 15.5002 99.5001 13.3002 94.8001 15.1002 93.9001 12.9002 99.2001 10.9002 98.3001 8.5002 90.3001 11.6002 94.6001 23.0002"></polygon>
                    <path d="M114.3002,13.3001 C115.3002,13.1001 115.8002,12.2001 115.6002,11.2001 C115.4002,10.2001 114.5002,9.7001 113.5002,9.9001 C112.5002,10.1001 112.0002,11.1001 112.2002,12.0001 C112.4002,13.0001 113.3002,13.6001 114.3002,13.3001" id="Fill-80"></path>
                    <polygon id="Fill-81" points="130.9999 13.5999 130.5999 9.1999 135.2999 8.6999 134.9999 6.2999 130.2999 6.7999 129.9999 3.9999 135.3999 3.3999 135.0999 0.8999 126.6999 1.7999 127.9999 13.8999"></polygon>
                    <path d="M145.9999,2.9998 C147.0999,2.9998 147.6999,3.4998 147.6999,4.4998 C147.6999,5.4998 147.1999,6.0998 145.9999,6.0998 L143.7999,6.0998 L143.7999,3.0998 L145.9999,2.9998 Z M143.8999,12.7998 L143.8999,8.4998 L145.6999,8.4998 C146.6999,8.4998 147.1999,8.8998 147.3999,9.7998 L147.6999,11.3998 C147.7999,11.9998 147.9999,12.3998 148.2999,12.6998 L151.5999,12.6998 C151.1999,12.2998 150.9999,11.8998 150.7999,11.2998 L150.2999,9.1998 C149.9999,7.9998 149.3999,7.4998 148.2999,7.2998 C149.7999,7.0998 150.8999,5.8998 150.8999,4.1998 C150.8999,1.7998 149.2999,0.5998 146.3999,0.5998 L140.8999,0.5998 L140.8999,12.7998 L143.8999,12.7998 Z" id="Fill-82"></path>
                    <polygon id="Fill-83" points="164.6 11.4002 158.9 10.8002 159.1 8.4002 164.1 8.9002 164.4 6.6002 159.4 6.1002 159.6 3.7002 165.2 4.3002 165.5 1.8002 156.9 0.9002 155.7 13.0002 164.3 13.9002"></polygon>
                    <polygon id="Fill-84" points="177.8998 13.9002 172.3998 12.7002 172.8998 10.3002 177.7998 11.3002 178.1998 9.1002 173.2998 8.1002 173.7998 5.8002 179.2998 6.9002 179.7998 4.4002 171.3998 2.7002 169.0008 14.6002 177.3998 16.4002"></polygon>
                    <path d="M190.8002,16.9998 C191.6992,17.2998 192.6992,16.8998 193.0002,15.8998 C193.3002,14.8998 192.9002,13.9998 191.9002,13.6998 C191.0002,13.3998 190.0002,13.8998 189.6992,14.7998 C189.3002,15.6998 189.8002,16.6998 190.8002,16.9998" id="Fill-85"></path>
                    <polygon id="Fill-86" points="206.6996 22.2 210.8996 24.3 212.0006 22.1 207.8006 20 209.0006 17.5 213.8006 19.9 215.0006 17.6 207.3996 13.9 202.0006 24.8 204.6996 26.2"></polygon>
                    <path d="M221.1996,24.0999 L223.0996,25.2999 C224.0006,25.8999 224.1996,26.5999 223.6996,27.3999 C223.0996,28.2999 222.3996,28.3999 221.5006,27.7999 L219.5996,26.5999 L221.1996,24.0999 Z M216.0006,32.2999 L218.3006,28.6999 L219.8006,29.6999 C220.6996,30.1999 220.8996,30.7999 220.5006,31.6999 L219.8996,33.1999 C219.6996,33.7999 219.5996,34.1999 219.6996,34.5999 L222.5006,36.3999 C222.3996,35.8999 222.3996,35.3999 222.5996,34.7999 L223.3006,32.7999 C223.6996,31.6999 223.3996,30.7999 222.5996,30.0999 C224.0006,30.6999 225.5996,30.2999 226.3996,28.8999 C227.6996,26.8999 227.0006,24.9999 224.5006,23.3999 L219.8006,20.3999 L213.5006,30.6999 L216.0006,32.2999 Z" id="Fill-87"></path>
                    <polygon id="Fill-88" points="232.6996 44.3001 234.3006 42.3001 229.8006 38.7001 231.3006 36.8001 235.3006 39.9001 236.6996 38.1001 232.6996 35.0001 234.1996 33.2001 238.5996 36.7001 240.1996 34.7001 233.3996 29.3001 225.8996 38.9001"></polygon>
                    <polygon id="Fill-89" points="242.3998 53.4002 244.1998 51.5002 240.0998 47.6002 241.7998 45.8002 245.3998 49.3002 247.0008 47.6002 243.3998 44.2002 245.0008 42.5002 249.0998 46.4002 250.8998 44.6002 244.6998 38.6002 236.1998 47.4002"></polygon>
                </g>
            </g>
        </g>
    </g>
</svg>