<?xml version="1.0" encoding="UTF-8"?>
<svg width="35px" height="39px" viewBox="0 0 35 39" version="1.1" xmlns="http://www.w3.org/2000/svg" xmlns:xlink="http://www.w3.org/1999/xlink">
    <!-- Generator: Sketch 51.3 (57544) - http://www.bohemiancoding.com/sketch -->
    <title>Group 10</title>
    <desc>Created with Sketch.</desc>
    <defs></defs>
    <g id="Page-1" stroke="none" stroke-width="1" fill="none" fill-rule="evenodd">
        <g id="Tablet" transform="translate(-176.000000, -488.000000)" fill="#FFFFFF">
            <g id="Group-10" transform="translate(176.000000, 487.000000)">
                <g id="Group-3" transform="translate(0.000000, 0.023400)">
                    <path d="M33.3281,19.9297 C33.0081,19.9297 32.6881,19.8077 32.4441,19.5637 L16.8751,3.9937 L2.1341,18.7357 C1.6451,19.2237 0.8541,19.2237 0.3661,18.7357 C-0.1219,18.2467 -0.1219,17.4557 0.3661,16.9677 L15.9911,1.3427 C16.4791,0.8547 17.2701,0.8547 17.7591,1.3427 L34.2121,17.7957 C34.7001,18.2837 34.7001,19.0757 34.2121,19.5637 C33.9681,19.8077 33.6481,19.9297 33.3281,19.9297" id="Fill-1"></path>
                </g>
                <g id="Group-6" transform="translate(0.000000, 11.023400)">
                    <path d="M33.3281,18.9648 C33.0081,18.9648 32.6881,18.8428 32.4441,18.5988 L16.8751,3.0288 L2.1341,17.7718 C1.6451,18.2598 0.8541,18.2598 0.3661,17.7718 C-0.1219,17.2828 -0.1219,16.4918 0.3661,16.0038 L15.9911,0.3778 C16.4601,-0.0912 17.2901,-0.0912 17.7591,0.3778 L34.2121,16.8308 C34.7001,17.3188 34.7001,18.1108 34.2121,18.5988 C33.9681,18.8428 33.6481,18.9648 33.3281,18.9648" id="Fill-4"></path>
                </g>
                <g id="Group-9" transform="translate(0.000000, 21.023400)">
                    <path d="M33.3281,19 C33.0081,19 32.6881,18.878 32.4441,18.634 L16.8751,3.064 L2.1341,17.807 C1.6451,18.295 0.8541,18.295 0.3661,17.807 C-0.1219,17.318 -0.1219,16.527 0.3661,16.039 L15.9911,0.413 C16.4601,-0.056 17.2901,-0.056 17.7591,0.413 L34.2121,16.866 C34.7001,17.354 34.7001,18.146 34.2121,18.634 C33.9681,18.878 33.6481,19 33.3281,19" id="Fill-7"></path>
                </g>
            </g>
        </g>
    </g>
</svg>