<?xml version="1.0" encoding="UTF-8"?>
<svg width="35px" height="36px" viewBox="0 0 35 36" version="1.1" xmlns="http://www.w3.org/2000/svg" xmlns:xlink="http://www.w3.org/1999/xlink">
    <!-- Generator: Sketch 51.3 (57544) - http://www.bohemiancoding.com/sketch -->
    <title>Group 3</title>
    <desc>Created with Sketch.</desc>
    <defs></defs>
    <g id="Page-1" stroke="none" stroke-width="1" fill="none" fill-rule="evenodd">
        <g id="Tablet" transform="translate(-366.000000, -424.000000)" fill="#FFFFFF">
            <g id="Instagram_Logo" transform="translate(365.000000, 424.000000)">
                <g id="Group-3">
                    <path d="M27.6012,5.7325 C26.4012,5.7325 25.4282,6.7055 25.4282,7.9055 C25.4282,9.1055 26.4012,10.0775 27.6012,10.0775 C28.8002,10.0775 29.7742,9.1055 29.7742,7.9055 C29.7742,6.7055 28.8002,5.7325 27.6012,5.7325 Z M17.8452,11.3035 C16.3362,11.3035 14.9012,11.8935 13.7872,12.9755 C12.5772,14.1505 11.8832,15.7945 11.8832,17.4835 C11.8832,20.8895 14.6542,23.6605 18.0602,23.6605 C21.4482,23.6605 24.1612,20.9325 24.2372,17.4495 C24.2752,15.6925 23.7702,14.2035 22.7762,13.1415 C21.7062,12.0005 20.0602,11.3655 18.0142,11.3065 C17.9572,11.3045 17.9012,11.3035 17.8452,11.3035 Z M18.0602,26.7995 C12.9232,26.7995 8.7442,22.6205 8.7442,17.4835 C8.7442,14.9505 9.7852,12.4865 11.6002,10.7245 C13.3702,9.0055 15.6812,8.0985 18.1062,8.1685 C21.0062,8.2535 23.4142,9.2315 25.0672,10.9955 C26.6332,12.6685 27.4322,14.9235 27.3752,17.5175 C27.3212,20.0015 26.3412,22.3265 24.6172,24.0655 C22.8692,25.8285 20.5402,26.7995 18.0602,26.7995 Z M11.0162,2.5685 C6.9102,2.5685 3.5682,5.9095 3.5682,10.0165 L3.5682,25.0485 C3.5682,29.1555 6.9102,32.4965 11.0162,32.4965 L25.1032,32.4965 C29.2102,32.4965 32.5512,29.1555 32.5512,25.0485 L32.5512,10.0165 C32.5512,5.9095 29.2102,2.5685 25.1032,2.5685 L11.0162,2.5685 Z M25.1032,35.0645 L11.0162,35.0645 C5.4932,35.0645 0.9992,30.5715 0.9992,25.0485 L0.9992,10.0165 C0.9992,4.4935 5.4932,0.0005 11.0162,0.0005 L25.1032,0.0005 C30.6262,0.0005 35.1202,4.4935 35.1202,10.0165 L35.1202,25.0485 C35.1202,30.5715 30.6262,35.0645 25.1032,35.0645 Z" id="Fill-1"></path>
                </g>
            </g>
        </g>
    </g>
</svg>